<svg xmlns="http://www.w3.org/2000/svg" xmlns:xlink="http://www.w3.org/1999/xlink" width="250" height="250" viewBox="0 0 250 250"><rect width="100%" height="100%" fill="#DDDDDD"/><path d="M55.89 133.63L62.39 133.63Q63.09 133.63 63.50 134.02Q63.91 134.41 63.91 135.06L63.91 135.06L63.91 137.65L46.55 137.65L46.55 136.22Q46.55 135.78 46.73 135.30Q46.91 134.82 47.32 134.43L47.32 134.43L55 126.73Q55.96 125.75 56.72 124.86Q57.48 123.97 57.99 123.09Q58.50 122.22 58.77 121.32Q59.04 120.42 59.04 119.42L59.04 119.42Q59.04 118.51 58.78 117.82Q58.52 117.13 58.04 116.65Q57.55 116.18 56.88 115.94Q56.21 115.71 55.37 115.71L55.37 115.71Q54.60 115.71 53.94 115.93Q53.29 116.15 52.78 116.54Q52.27 116.93 51.92 117.46Q51.57 117.98 51.40 118.61L51.40 118.61Q51.10 119.42 50.63 119.68Q50.15 119.94 49.26 119.80L49.26 119.80L46.98 119.40Q47.25 117.58 48 116.21Q48.75 114.83 49.88 113.91Q51.01 113.00 52.47 112.53Q53.93 112.07 55.61 112.07L55.61 112.07Q57.36 112.07 58.82 112.58Q60.27 113.10 61.30 114.05Q62.33 114.99 62.91 116.32Q63.49 117.65 63.49 119.28L63.49 119.28Q63.49 120.68 63.08 121.87Q62.67 123.06 61.97 124.14Q61.28 125.23 60.36 126.24Q59.43 127.26 58.41 128.31L58.41 128.31L52.71 134.13Q53.53 133.89 54.34 133.76Q55.16 133.63 55.89 133.63L55.89 133.63ZM73.52 116.27L72.62 121.53Q73.46 121.36 74.23 121.28Q75.00 121.20 75.72 121.20L75.72 121.20Q77.72 121.20 79.24 121.80Q80.76 122.39 81.79 123.44Q82.83 124.49 83.35 125.90Q83.88 127.31 83.88 128.94L83.88 128.94Q83.88 130.95 83.17 132.61Q82.46 134.28 81.20 135.46Q79.94 136.64 78.21 137.28Q76.49 137.93 74.46 137.93L74.46 137.93Q73.27 137.93 72.20 137.69Q71.14 137.44 70.20 137.03Q69.26 136.62 68.47 136.09Q67.67 135.55 67.04 134.96L67.04 134.96L68.37 133.12Q68.79 132.53 69.47 132.53L69.47 132.53Q69.91 132.53 70.36 132.81Q70.82 133.09 71.41 133.42Q71.99 133.75 72.79 134.03Q73.58 134.31 74.70 134.31L74.70 134.31Q75.89 134.31 76.81 133.93Q77.72 133.54 78.32 132.85Q78.92 132.16 79.23 131.20Q79.53 130.25 79.53 129.13L79.53 129.13Q79.53 127.06 78.34 125.90Q77.14 124.74 74.79 124.74L74.79 124.74Q72.99 124.74 71.10 125.40L71.10 125.40L68.41 124.63L70.50 112.35L83 112.35L83 114.19Q83 115.11 82.42 115.69Q81.84 116.27 80.46 116.27L80.46 116.27L73.52 116.27ZM105.24 125L105.24 125Q105.24 128.31 104.53 130.75Q103.82 133.19 102.57 134.78Q101.32 136.38 99.62 137.15Q97.91 137.93 95.93 137.93L95.93 137.93Q93.95 137.93 92.27 137.15Q90.58 136.38 89.33 134.78Q88.09 133.19 87.39 130.75Q86.69 128.31 86.69 125L86.69 125Q86.69 121.67 87.39 119.24Q88.09 116.81 89.33 115.22Q90.58 113.63 92.27 112.85Q93.95 112.07 95.93 112.07L95.93 112.07Q97.91 112.07 99.62 112.85Q101.32 113.63 102.57 115.22Q103.82 116.81 104.53 119.24Q105.24 121.67 105.24 125ZM100.78 125L100.78 125Q100.78 122.25 100.38 120.45Q99.97 118.65 99.30 117.58Q98.63 116.51 97.75 116.08Q96.88 115.66 95.93 115.66L95.93 115.66Q95.00 115.66 94.14 116.08Q93.27 116.51 92.61 117.58Q91.94 118.65 91.55 120.45Q91.16 122.25 91.16 125L91.16 125Q91.16 127.75 91.55 129.55Q91.94 131.35 92.61 132.42Q93.27 133.49 94.14 133.92Q95.00 134.34 95.93 134.34L95.93 134.34Q96.88 134.34 97.75 133.92Q98.63 133.49 99.30 132.42Q99.97 131.35 100.38 129.55Q100.78 127.75 100.78 125ZM133.03 131.86L130.74 134.12L124.81 128.19L118.82 134.15L116.53 131.90L122.51 125.89L116.81 120.19L119.08 117.91L124.79 123.62L130.46 117.95L132.77 120.22L127.08 125.91L133.03 131.86ZM154.10 133.63L160.59 133.63Q161.29 133.63 161.71 134.02Q162.12 134.41 162.12 135.06L162.12 135.06L162.12 137.65L144.76 137.65L144.76 136.22Q144.76 135.78 144.94 135.30Q145.12 134.82 145.53 134.43L145.53 134.43L153.21 126.73Q154.17 125.75 154.93 124.86Q155.69 123.97 156.20 123.09Q156.71 122.22 156.98 121.32Q157.25 120.42 157.25 119.42L157.25 119.42Q157.25 118.51 156.99 117.82Q156.73 117.13 156.25 116.65Q155.76 116.18 155.09 115.94Q154.42 115.71 153.58 115.71L153.58 115.71Q152.81 115.71 152.15 115.93Q151.49 116.15 150.99 116.54Q150.48 116.93 150.13 117.46Q149.78 117.98 149.60 118.61L149.60 118.61Q149.31 119.42 148.83 119.68Q148.36 119.94 147.47 119.80L147.47 119.80L145.19 119.40Q145.46 117.58 146.21 116.21Q146.96 114.83 148.09 113.91Q149.22 113.00 150.68 112.53Q152.14 112.07 153.82 112.07L153.82 112.07Q155.57 112.07 157.02 112.58Q158.48 113.10 159.51 114.05Q160.54 114.99 161.12 116.32Q161.70 117.65 161.70 119.28L161.70 119.28Q161.70 120.68 161.29 121.87Q160.87 123.06 160.18 124.14Q159.49 125.23 158.56 126.24Q157.64 127.26 156.62 128.31L156.62 128.31L150.92 134.13Q151.74 133.89 152.55 133.76Q153.37 133.63 154.10 133.63L154.10 133.63ZM171.72 116.27L170.83 121.53Q171.67 121.36 172.44 121.28Q173.21 121.20 173.93 121.20L173.93 121.20Q175.92 121.20 177.45 121.80Q178.97 122.39 180.00 123.44Q181.03 124.49 181.56 125.90Q182.08 127.31 182.08 128.94L182.08 128.94Q182.08 130.95 181.38 132.61Q180.67 134.28 179.41 135.46Q178.15 136.64 176.42 137.28Q174.70 137.93 172.67 137.93L172.67 137.93Q171.48 137.93 170.41 137.69Q169.34 137.44 168.41 137.03Q167.47 136.62 166.68 136.09Q165.88 135.55 165.25 134.96L165.25 134.96L166.58 133.12Q167 132.53 167.68 132.53L167.68 132.53Q168.12 132.53 168.57 132.81Q169.03 133.09 169.62 133.42Q170.20 133.75 171.00 134.03Q171.79 134.31 172.91 134.31L172.91 134.31Q174.10 134.31 175.01 133.93Q175.92 133.54 176.53 132.85Q177.13 132.16 177.44 131.20Q177.75 130.25 177.75 129.13L177.75 129.13Q177.75 127.06 176.55 125.90Q175.35 124.74 173.00 124.74L173.00 124.74Q171.20 124.74 169.31 125.40L169.31 125.40L166.61 124.63L168.72 112.35L181.21 112.35L181.21 114.19Q181.21 115.11 180.63 115.69Q180.06 116.27 178.67 116.27L178.67 116.27L171.72 116.27ZM203.45 125L203.45 125Q203.45 128.31 202.74 130.75Q202.03 133.19 200.78 134.78Q199.53 136.38 197.83 137.15Q196.12 137.93 194.14 137.93L194.14 137.93Q192.16 137.93 190.48 137.15Q188.79 136.38 187.55 134.78Q186.30 133.19 185.60 130.75Q184.90 128.31 184.90 125L184.90 125Q184.90 121.67 185.60 119.24Q186.30 116.81 187.55 115.22Q188.79 113.63 190.48 112.85Q192.16 112.07 194.14 112.07L194.14 112.07Q196.12 112.07 197.83 112.85Q199.53 113.63 200.78 115.22Q202.03 116.81 202.74 119.24Q203.45 121.67 203.45 125ZM198.99 125L198.99 125Q198.99 122.25 198.59 120.45Q198.19 118.65 197.51 117.58Q196.84 116.51 195.96 116.08Q195.09 115.66 194.14 115.66L194.14 115.66Q193.22 115.66 192.35 116.08Q191.48 116.51 190.82 117.58Q190.15 118.65 189.76 120.45Q189.37 122.25 189.37 125L189.37 125Q189.37 127.75 189.76 129.55Q190.15 131.35 190.82 132.42Q191.48 133.49 192.35 133.92Q193.22 134.34 194.14 134.34L194.14 134.34Q195.09 134.34 195.96 133.92Q196.84 133.49 197.51 132.42Q198.19 131.35 198.59 129.55Q198.99 127.75 198.99 125Z" fill="#999999"/></svg>